<svg xmlns="http://www.w3.org/2000/svg" viewBox="0 0 24 24" fill="none"><path d="M9.00342 5H4.00293C3.45084 5 3.0032 5.44742 3.00293 5.99951L3 11.9995C2.99973 12.552 3.44752 13 4 13H5.99951L6.00342 19C6.00342 19 10.0034 17.5 10.0034 13V5.99882C10.0034 5.44654 9.5557 5 9.00342 5Z" stroke="currentColor" stroke-width="2" stroke-linejoin="round"/><path d="M20 5H15C14.4477 5 14 5.44772 14 6V12C14 12.5523 14.4477 13 15 13H17V19C17 19 21 17.5 21 13V5.99882C21 5.44654 20.5523 5 20 5Z" stroke="currentColor" stroke-width="2" stroke-linejoin="round"/></svg>